<svg width="16" height="16" viewBox="0 0 16 16" fill="none" xmlns="http://www.w3.org/2000/svg">
<path d="M7.33335 13.2667V2.73334C7.33335 1.73334 6.90669 1.33334 5.84669 1.33334H3.15335C2.09335 1.33334 1.66669 1.73334 1.66669 2.73334V13.2667C1.66669 14.2667 2.09335 14.6667 3.15335 14.6667H5.84669C6.90669 14.6667 7.33335 14.2667 7.33335 13.2667Z" fill="#B13E3E"/>
<path d="M14.3334 7.26667V2.73334C14.3334 1.73334 13.9067 1.33334 12.8467 1.33334H10.1534C9.09335 1.33334 8.66669 1.73334 8.66669 2.73334V7.26667C8.66669 8.26667 9.09335 8.66667 10.1534 8.66667H12.8467C13.9067 8.66667 14.3334 8.26667 14.3334 7.26667Z" fill="#B13E3E"/>
<path d="M14.3334 13.2667V11.4C14.3334 10.4 13.9067 10 12.8467 10H10.1534C9.09335 10 8.66669 10.4 8.66669 11.4V13.2667C8.66669 14.2667 9.09335 14.6667 10.1534 14.6667H12.8467C13.9067 14.6667 14.3334 14.2667 14.3334 13.2667Z" fill="#B13E3E"/>
</svg>
