<svg width="30" height="30" viewBox="0 0 30 30" fill="none" xmlns="http://www.w3.org/2000/svg">
<path d="M29.9999 15C29.9999 6.71776 23.2822 0 15 0C6.71776 0 0 6.71776 0 15C0 22.4853 5.48437 28.6933 12.6562 29.8183V19.3359H8.84764V15H12.6562V11.6953C12.6562 7.93651 14.8974 5.85936 18.3222 5.85936C19.9629 5.85936 21.6796 6.15233 21.6796 6.15233V9.84373H19.7871C17.9238 9.84373 17.3437 11.001 17.3437 12.1875V15H21.5039L20.8388 19.3359H17.3437V29.8183C24.5156 28.6933 29.9999 22.4882 29.9999 15Z" fill="#1977F3"/>
<path d="M20.8388 19.336L21.5039 15H17.3437V12.1875C17.3437 11.001 17.9238 9.8438 19.7871 9.8438H21.6796V6.1524C21.6796 6.1524 19.9628 5.85943 18.3222 5.85943C14.8974 5.85943 12.6562 7.93364 12.6562 11.6954V15H8.84763V19.336H12.6562V29.8184C13.4209 29.9385 14.2031 30 15 30C15.7968 30 16.5791 29.9356 17.3437 29.8184V19.336H20.8388Z" fill="#FEFEFE"/>
</svg>
