<svg width="16" height="15" viewBox="0 0 16 15" fill="none" xmlns="http://www.w3.org/2000/svg">
<path d="M5.49579 2.85557C6.30715 1.15523 6.71283 0.305067 7.29843 0.0919063C7.63508 -0.0306335 8.00413 -0.0306335 8.34078 0.0919063C8.92638 0.305067 9.33206 1.15523 10.1434 2.85557C10.383 3.35762 10.5028 3.60865 10.6899 3.79474C10.8012 3.90542 10.929 3.99823 11.0686 4.06989C11.3035 4.19039 11.5792 4.22674 12.1307 4.29944C13.9986 4.54565 14.9325 4.66876 15.3162 5.15983C15.5367 5.44213 15.6508 5.79313 15.6383 6.15116C15.6165 6.77397 14.9333 7.42251 13.5669 8.71959C13.1635 9.10258 12.9618 9.29407 12.8426 9.52958C12.7717 9.66964 12.7229 9.81982 12.6979 9.97478C12.6559 10.2353 12.7066 10.5088 12.8078 11.0558C13.1509 12.9083 13.3224 13.8346 12.9739 14.3512C12.7736 14.6482 12.475 14.8652 12.1306 14.9639C11.5316 15.1357 10.7037 14.6863 9.04783 13.7876C8.55892 13.5223 8.31446 13.3896 8.05366 13.3491C7.89856 13.3249 7.74065 13.3249 7.58555 13.3491C7.32475 13.3896 7.08029 13.5223 6.59138 13.7876C4.93554 14.6863 4.10763 15.1357 3.50857 14.9639C3.16419 14.8652 2.86562 14.6482 2.66529 14.3512C2.31682 13.8346 2.48834 12.9083 2.83137 11.0558C2.93265 10.5088 2.98329 10.2353 2.94126 9.97478C2.91626 9.81982 2.86747 9.66964 2.79661 9.52958C2.67746 9.29407 2.47573 9.10258 2.07228 8.71959C0.70589 7.42251 0.0226956 6.77397 0.000928537 6.15116C-0.0115847 5.79313 0.102461 5.44213 0.323033 5.15983C0.706721 4.66876 1.64064 4.54565 3.50848 4.29944C4.05999 4.22674 4.33574 4.19039 4.57056 4.06989C4.71022 3.99823 4.83797 3.90542 4.94928 3.79474C5.13644 3.60865 5.25622 3.35762 5.49579 2.85557Z" fill="#F5A94F"/>
</svg>
