<svg width="25" height="26" viewBox="0 0 25 26" fill="none" xmlns="http://www.w3.org/2000/svg">
<path d="M25 13.0586C25 12.2178 24.9255 11.4196 24.7978 10.6427H12.7716V15.4425H19.6574C19.3488 17.0176 18.4441 18.348 17.1031 19.2526V22.4454H21.2112C23.6165 20.2211 25 16.9431 25 13.0586Z" fill="#4285F4"/>
<path d="M12.771 25.5424C16.2193 25.5424 19.1034 24.393 21.2107 22.4454L17.1026 19.2526C15.9532 20.0189 14.4951 20.4871 12.771 20.4871C9.43987 20.4871 6.61956 18.2415 5.6085 15.2084H1.37271V18.497C3.46932 22.6689 7.77961 25.5424 12.771 25.5424Z" fill="#34A853"/>
<path d="M5.6087 15.2084C5.34263 14.4421 5.20427 13.6227 5.20427 12.7712C5.20427 11.9198 5.35327 11.1003 5.6087 10.3341V7.04548H1.37291C0.500205 8.76959 0 10.7066 0 12.7712C0 14.8359 0.500205 16.7729 1.37291 18.497L5.6087 15.2084Z" fill="#FBBC05"/>
<path d="M12.771 5.05528C14.6548 5.05528 16.3363 5.70448 17.6667 6.97096L21.3065 3.33116C19.1034 1.26648 16.2193 0 12.771 0C7.77961 0 3.46932 2.87353 1.37271 7.04546L5.6085 10.3341C6.61956 7.30089 9.43987 5.05528 12.771 5.05528Z" fill="#EA4335"/>
</svg>
