<svg width="17" height="17" viewBox="0 0 17 17" fill="none" xmlns="http://www.w3.org/2000/svg">
<path d="M14.875 15.5834H2.125C1.83458 15.5834 1.59375 15.3425 1.59375 15.0521C1.59375 14.7617 1.83458 14.5209 2.125 14.5209H14.875C15.1654 14.5209 15.4062 14.7617 15.4062 15.0521C15.4062 15.3425 15.1654 15.5834 14.875 15.5834Z" fill="#EA985B"/>
<path d="M13.4725 2.46497C12.0983 1.0908 10.7525 1.05539 9.34289 2.46497L8.4858 3.32205C8.41497 3.39289 8.38664 3.50622 8.41497 3.60539C8.9533 5.48247 10.455 6.98414 12.3321 7.52247C12.3604 7.52955 12.3887 7.53664 12.4171 7.53664C12.495 7.53664 12.5658 7.5083 12.6225 7.45164L13.4725 6.59455C14.1737 5.90039 14.5137 5.22747 14.5137 4.54747C14.5208 3.84622 14.1808 3.16622 13.4725 2.46497Z" fill="#EA985B"/>
<path d="M11.0571 8.16707C10.8517 8.0679 10.6533 7.96873 10.4621 7.8554C10.3063 7.76332 10.1575 7.66415 10.0088 7.5579C9.88834 7.47998 9.74667 7.36665 9.61208 7.25332C9.59792 7.24623 9.54833 7.20373 9.49167 7.14707C9.25792 6.94873 8.99583 6.69373 8.76208 6.4104C8.74083 6.39623 8.70542 6.34665 8.65584 6.2829C8.585 6.1979 8.46459 6.05623 8.35834 5.89332C8.27333 5.78707 8.17417 5.63123 8.08209 5.4754C7.96875 5.28415 7.86959 5.0929 7.77042 4.89457C7.6404 4.61595 7.27472 4.53318 7.05731 4.75059L3.07417 8.73373C2.98209 8.82582 2.89709 9.0029 2.87584 9.12332L2.49334 11.8362C2.4225 12.3179 2.55709 12.7712 2.85459 13.0758C3.10959 13.3237 3.46375 13.4583 3.84625 13.4583C3.93125 13.4583 4.01625 13.4512 4.10125 13.4371L6.82125 13.0546C6.94875 13.0333 7.12584 12.9483 7.21084 12.8562L11.2005 8.86652C11.4136 8.65346 11.3336 8.28687 11.0571 8.16707Z" fill="#EA985B"/>
</svg>
