<svg width="24" height="24" viewBox="0 0 24 24" fill="none" xmlns="http://www.w3.org/2000/svg">
<path d="M15.51 2.83008H8.49C6 2.83008 5.45 4.07008 5.13 5.59008L4 11.0001H20L18.87 5.59008C18.55 4.07008 18 2.83008 15.51 2.83008Z" stroke="#292D32" stroke-width="1.5" stroke-linecap="round" stroke-linejoin="round"/>
<path d="M21.99 19.82C22.1 20.99 21.16 22 19.96 22H18.08C17 22 16.85 21.54 16.66 20.97L16.46 20.37C16.18 19.55 16 19 14.56 19H9.44001C8.00001 19 7.79001 19.62 7.54001 20.37L7.34001 20.97C7.15001 21.54 7.00001 22 5.92001 22H4.04001C2.84001 22 1.90001 20.99 2.01001 19.82L2.57001 13.73C2.71001 12.23 3.00001 11 5.62001 11H18.38C21 11 21.29 12.23 21.43 13.73L21.99 19.82Z" stroke="#292D32" stroke-width="1.5" stroke-linecap="round" stroke-linejoin="round"/>
<path d="M4 8H3" stroke="#292D32" stroke-width="1.5" stroke-linecap="round" stroke-linejoin="round"/>
<path d="M21 8H20" stroke="#292D32" stroke-width="1.5" stroke-linecap="round" stroke-linejoin="round"/>
<path d="M12 3V5" stroke="#292D32" stroke-width="1.5" stroke-linecap="round" stroke-linejoin="round"/>
<path d="M10.5 5H13.5" stroke="#292D32" stroke-width="1.5" stroke-linecap="round" stroke-linejoin="round"/>
<path d="M6 15H9" stroke="#292D32" stroke-width="1.5" stroke-linecap="round" stroke-linejoin="round"/>
<path d="M15 15H18" stroke="#292D32" stroke-width="1.5" stroke-linecap="round" stroke-linejoin="round"/>
</svg>
