<svg width="24" height="24" viewBox="0 0 24 24" fill="none" xmlns="http://www.w3.org/2000/svg">
<path d="M9 22H15C20 22 22 20 22 15V9C22 4 20 2 15 2H9C4 2 2 4 2 9V15C2 20 4 22 9 22Z" stroke="#EA985B" stroke-width="1.5" stroke-linecap="round" stroke-linejoin="round"/>
<path d="M15.57 18.5V14.6" stroke="#EA985B" stroke-width="1.5" stroke-miterlimit="10" stroke-linecap="round" stroke-linejoin="round"/>
<path d="M15.57 7.45V5.5" stroke="#EA985B" stroke-width="1.5" stroke-miterlimit="10" stroke-linecap="round" stroke-linejoin="round"/>
<path d="M15.57 12.65C17.0059 12.65 18.17 11.4859 18.17 10.05C18.17 8.61401 17.0059 7.44995 15.57 7.44995C14.1341 7.44995 12.97 8.61401 12.97 10.05C12.97 11.4859 14.1341 12.65 15.57 12.65Z" stroke="#EA985B" stroke-width="1.5" stroke-miterlimit="10" stroke-linecap="round" stroke-linejoin="round"/>
<path d="M8.42999 18.5V16.55" stroke="#EA985B" stroke-width="1.5" stroke-miterlimit="10" stroke-linecap="round" stroke-linejoin="round"/>
<path d="M8.42999 9.4V5.5" stroke="#EA985B" stroke-width="1.5" stroke-miterlimit="10" stroke-linecap="round" stroke-linejoin="round"/>
<path d="M8.43 16.55C9.86594 16.55 11.03 15.3859 11.03 13.95C11.03 12.514 9.86594 11.35 8.43 11.35C6.99406 11.35 5.83 12.514 5.83 13.95C5.83 15.3859 6.99406 16.55 8.43 16.55Z" stroke="#EA985B" stroke-width="1.5" stroke-miterlimit="10" stroke-linecap="round" stroke-linejoin="round"/>
</svg>
