<svg width="14" height="14" viewBox="0 0 14 14" fill="none" xmlns="http://www.w3.org/2000/svg">
<path d="M8.00917 2.04754L9.03584 4.10087C9.17584 4.38671 9.54918 4.66087 9.86418 4.71337L11.725 5.02254C12.915 5.22087 13.195 6.08421 12.3375 6.93587L10.8908 8.38254C10.6458 8.62754 10.5117 9.10004 10.5875 9.43837L11.0017 11.2292C11.3283 12.6467 10.5758 13.195 9.32168 12.4542L7.57751 11.4217C7.26251 11.235 6.74334 11.235 6.42251 11.4217L4.67834 12.4542C3.43001 13.195 2.67167 12.6409 2.99834 11.2292L3.41251 9.43837C3.48834 9.10004 3.35417 8.62754 3.10917 8.38254L1.66251 6.93587C0.810841 6.08421 1.08501 5.22087 2.27501 5.02254L4.13584 4.71337C4.44501 4.66087 4.81834 4.38671 4.95834 4.10087L5.98501 2.04754C6.54501 0.933372 7.45501 0.933372 8.00917 2.04754Z" fill="#EA985B"/>
</svg>
