<svg width="16" height="16" viewBox="0 0 16 16" fill="none" xmlns="http://www.w3.org/2000/svg">
<path d="M10.7933 1.33325H5.20665C2.77998 1.33325 1.33331 2.77992 1.33331 5.20659V10.7866C1.33331 13.2199 2.77998 14.6666 5.20665 14.6666H10.7866C13.2133 14.6666 14.66 13.2199 14.66 10.7933V5.20659C14.6666 2.77992 13.22 1.33325 10.7933 1.33325ZM11.5666 6.03325L10.0066 11.0599C9.63331 12.2533 7.95998 12.2733 7.56665 11.0866L7.09998 9.70659C6.97331 9.32659 6.67331 9.01992 6.29331 8.89992L4.90665 8.43325C3.73331 8.03992 3.74665 6.35325 4.93998 5.99325L9.96665 4.42659C10.9533 4.12659 11.88 5.05325 11.5666 6.03325Z" fill="#45B8E9"/>
</svg>
