<svg width="28" height="28" viewBox="0 0 28 28" fill="none" xmlns="http://www.w3.org/2000/svg">
<path d="M24.0567 9.85834C22.8317 4.46834 18.13 2.04167 14 2.04167C14 2.04167 14 2.04167 13.9883 2.04167C9.87 2.04167 5.15667 4.45667 3.93167 9.84667C2.56667 15.8667 6.25334 20.965 9.59 24.1733C10.8267 25.3633 12.4133 25.9583 14 25.9583C15.5867 25.9583 17.1733 25.3633 18.3983 24.1733C21.735 20.965 25.4217 15.8783 24.0567 9.85834ZM14 15.7033C11.97 15.7033 10.325 14.0583 10.325 12.0283C10.325 9.99834 11.97 8.35334 14 8.35334C16.03 8.35334 17.675 9.99834 17.675 12.0283C17.675 14.0583 16.03 15.7033 14 15.7033Z" fill="#292D32"/>
</svg>
