<svg width="18" height="18" viewBox="0 0 18 18" fill="none" xmlns="http://www.w3.org/2000/svg">
<path d="M13.2 3.9825L8.96248 1.7025C8.51249 1.4625 7.97999 1.4625 7.52999 1.7025L3.29999 3.9825C2.99249 4.155 2.79749 4.485 2.79749 4.845C2.79749 5.2125 2.98499 5.5425 3.29999 5.7075L7.53749 7.9875C7.76249 8.1075 8.00999 8.1675 8.24999 8.1675C8.48999 8.1675 8.74498 8.1075 8.96248 7.9875L13.2 5.7075C13.5075 5.5425 13.7025 5.2125 13.7025 4.845C13.7025 4.485 13.5075 4.155 13.2 3.9825Z" fill="#28B996"/>
<path d="M6.84 8.7825L2.9025 6.8175C2.595 6.66 2.25 6.6825 1.9575 6.855C1.6725 7.035 1.5 7.3425 1.5 7.68V11.4C1.5 12.045 1.86 12.6225 2.4375 12.915L6.375 14.88C6.51 14.9475 6.66 14.985 6.81 14.985C6.9825 14.985 7.1625 14.9325 7.32 14.8425C7.605 14.6625 7.7775 14.355 7.7775 14.0175V10.2975C7.77 9.6525 7.41 9.075 6.84 8.7825Z" fill="#28B996"/>
<path d="M15 7.68V9.525C14.64 9.42 14.2575 9.375 13.875 9.375C12.855 9.375 11.8575 9.7275 11.07 10.3575C9.98998 11.205 9.37498 12.4875 9.37498 13.875C9.37498 14.2425 9.41998 14.61 9.51748 14.9625C9.40498 14.9475 9.29248 14.9025 9.18748 14.835C8.90248 14.6625 8.72998 14.355 8.72998 14.0175V10.2975C8.72998 9.6525 9.08998 9.075 9.65998 8.7825L13.5975 6.8175C13.905 6.66 14.25 6.6825 14.5425 6.855C14.8275 7.035 15 7.3425 15 7.68Z" fill="#28B996"/>
<path d="M16.485 11.7375C15.87 10.98 14.9325 10.5 13.875 10.5C13.08 10.5 12.345 10.7775 11.7675 11.2425C10.9875 11.8575 10.5 12.81 10.5 13.875C10.5 14.9325 10.98 15.87 11.7375 16.485C12.315 16.965 13.065 17.25 13.875 17.25C14.73 17.25 15.5025 16.9275 16.1025 16.41C16.8 15.7875 17.25 14.8875 17.25 13.875C17.25 13.065 16.965 12.315 16.485 11.7375ZM14.6475 14.085C14.6475 14.28 14.5425 14.4675 14.3775 14.565L13.32 15.195C13.23 15.2475 13.1325 15.2775 13.0275 15.2775C12.84 15.2775 12.6525 15.18 12.5475 15.0075C12.39 14.7375 12.4725 14.3925 12.7425 14.235L13.5225 13.77V12.825C13.5225 12.5175 13.7775 12.2625 14.085 12.2625C14.3925 12.2625 14.6475 12.5175 14.6475 12.825V14.085Z" fill="#28B996"/>
</svg>
