<svg width="21" height="21" viewBox="0 0 21 21" fill="none" xmlns="http://www.w3.org/2000/svg">
<path d="M16.835 4.88249H16.485L13.5275 1.92499C13.2913 1.68874 12.9062 1.68874 12.6613 1.92499C12.425 2.16124 12.425 2.54624 12.6613 2.79124L14.7525 4.88249H6.2475L8.33875 2.79124C8.575 2.55499 8.575 2.16999 8.33875 1.92499C8.1025 1.68874 7.7175 1.68874 7.4725 1.92499L4.52375 4.88249H4.17375C3.38625 4.88249 1.75 4.88249 1.75 7.12249C1.75 7.97124 1.925 8.53124 2.2925 8.89874C2.5025 9.11749 2.75625 9.23124 3.0275 9.29249C3.28125 9.35374 3.5525 9.36249 3.815 9.36249H17.185C17.4562 9.36249 17.71 9.34499 17.955 9.29249C18.69 9.11749 19.25 8.59249 19.25 7.12249C19.25 4.88249 17.6137 4.88249 16.835 4.88249Z" fill="white"/>
<path d="M16.6687 10.5H4.2612C3.7187 10.5 3.30745 10.9812 3.39495 11.515L4.12995 16.0125C4.37495 17.5175 5.0312 19.25 7.94495 19.25H12.8537C15.8025 19.25 16.3275 17.7713 16.6425 16.1175L17.5262 11.5412C17.6312 10.9987 17.22 10.5 16.6687 10.5ZM10.5 17.0625C8.45245 17.0625 6.7812 15.3913 6.7812 13.3438C6.7812 12.985 7.0787 12.6875 7.43745 12.6875C7.7962 12.6875 8.0937 12.985 8.0937 13.3438C8.0937 14.6737 9.16995 15.75 10.5 15.75C11.83 15.75 12.9062 14.6737 12.9062 13.3438C12.9062 12.985 13.2037 12.6875 13.5625 12.6875C13.9212 12.6875 14.2187 12.985 14.2187 13.3438C14.2187 15.3913 12.5475 17.0625 10.5 17.0625Z" fill="white"/>
</svg>
